# xmcd CD database file
#
# Track frame offsets:
#	150
#	7833
#	20645
#	35293
#	50488
#	64248
#	75320
#	98765
#	112635
#	128140
#	137888
#	148990
#	159050
#	173063
#	183905
#	198708
#	210448
#	223130
#	236810
#	247845
#	263020
#
# Disc length: 3693 seconds
#
# Revision: 0
# Processed by: cddbd v1.5.2PL0 Copyright (c) Steve Scherf et al.
# Submitted via: CDex 1.51
#
DISCID=180e6b15
DTITLE=Mel Tormé - At the Crescendo (Complete Recordings 1954 and 1957) [CD1]
DYEAR=2008
DGENRE=Jazz
TTITLE0=From This Moment On
TTITLE1=September Song
TTITLE2=That Old Black Magic
TTITLE3=Get Out Of Town
TTITLE4=My Shining Hour
TTITLE5=Goody, Goody
TTITLE6=County Fair
TTITLE7=The Christmas Song
TTITLE8=A Stranger In Town
TTITLE9=I Wish I Were In Love Again
TTITLE10=Moonlight In Vermont
TTITLE11=You're Driving Me Crazy
TTITLE12=Bernies's Tune
TTITLE13=Our Love Is Here To Stay
TTITLE14=Old Devil Moon
TTITLE15=Blue Moon
TTITLE16=Have You Met Miss Jones?
TTITLE17=Jeepers Creepers
TTITLE18=Mountain Greenery
TTITLE19=Imagination
TTITLE20=Get Happy
EXTD=YEAR: 2008
EXTT0=
EXTT1=
EXTT2=
EXTT3=
EXTT4=
EXTT5=
EXTT6=
EXTT7=
EXTT8=
EXTT9=
EXTT10=
EXTT11=
EXTT12=
EXTT13=
EXTT14=
EXTT15=
EXTT16=
EXTT17=
EXTT18=
EXTT19=
EXTT20=
PLAYORDER=
